<svg width="431" height="133" viewBox="0 0 431 133" fill="none" xmlns="http://www.w3.org/2000/svg">
<mask id="mask0_2444_106" style="mask-type:luminance" maskUnits="userSpaceOnUse" x="394" y="15" width="37" height="65">
<path d="M429.625 15.2932L431 73.7741C426.505 77.0638 421.235 78.9243 415.336 79.5017C409.385 80.0862 402.791 79.3627 395.472 77.3418L394.096 18.8609C401.416 20.8818 408.007 21.6053 413.96 21.0208C419.914 20.4363 425.129 18.5829 429.625 15.2932Z" fill="white"/>
</mask>
<g mask="url(#mask0_2444_106)">
<path d="M429.625 15.2932L431 73.7741C426.504 77.0638 421.235 78.9243 415.336 79.5017C412.489 79.7797 409.497 79.7619 406.348 79.4447L404.972 20.9637C408.121 21.281 411.114 21.3023 413.96 21.0208C419.86 20.4434 425.129 18.5829 429.625 15.2932Z" fill="black"/>
<path d="M404.972 20.9601L406.347 79.4411C403.421 79.1452 400.362 78.5928 397.159 77.7837L395.783 19.3028C398.986 20.1119 402.046 20.6643 404.972 20.9601Z" fill="black"/>
<path d="M395.784 19.3029L397.159 77.7838C396.602 77.6413 396.039 77.4951 395.472 77.3383L394.096 18.8574C394.663 19.0142 395.223 19.1639 395.784 19.3029Z" fill="black"/>
<path d="M413.116 40.2388C420.656 39.8218 417.73 46.1125 417.239 46.7077C416.405 47.7164 415.084 48.3045 413.307 48.4506C412.145 48.5255 410.961 48.554 409.751 48.5326L409.557 40.3207C410.767 40.3421 411.951 40.3136 413.113 40.2388M404.167 64.0724C406.217 64.3468 408.204 64.5037 410.13 64.5357L409.878 53.8396C411.2 53.861 412.489 53.8254 413.75 53.7327C425.346 52.6171 425.244 39.6293 421.955 36.5819C419.739 34.5254 415.555 34.8034 413.307 34.9531C410.203 35.1812 406.93 35.06 403.473 34.5967L404.167 64.0724Z" fill="white"/>
<path d="M425.829 31.6564C427.265 30.9364 428.641 30.1024 429.949 29.1436L430.643 58.6193C429.335 59.5781 427.959 60.4121 426.523 61.1321L425.829 31.6564Z" fill="white"/>
<path d="M394.103 19.0997C401.422 21.1205 408.013 21.8441 413.967 21.2595C419.92 20.675 425.136 18.8217 429.631 15.5319L429.685 17.87C425.19 21.1597 419.92 23.0202 414.021 23.5976C408.07 24.1822 401.477 23.4586 394.157 21.4378L394.103 19.0997Z" fill="black"/>
<path d="M395.424 75.2391C402.744 77.26 409.334 77.9835 415.288 77.399C421.188 76.8216 426.457 74.9611 430.952 71.6713L431.003 73.7706C426.508 77.0604 421.238 78.9209 415.339 79.4983C409.388 80.0828 402.795 79.3592 395.475 77.3384L395.424 75.2391Z" fill="black"/>
</g>
<mask id="mask1_2444_106" style="mask-type:luminance" maskUnits="userSpaceOnUse" x="153" y="0" width="243" height="118">
<path d="M394.096 18.8572L395.472 77.3382C388.942 75.3815 382.348 72.94 375.971 70.577C357.877 63.8763 339.198 56.9582 317.672 59.0682C316.497 59.1823 315.316 59.3249 314.125 59.4959C289.056 63.0494 271.089 74.633 253.712 85.8387C242.024 93.377 229.939 101.172 215.755 106.507C202.739 111.49 187.985 114.844 172.948 116.32C166.944 116.908 160.891 117.196 154.886 117.168L153.511 58.6869C159.516 58.7154 165.568 58.4267 171.573 57.8386C186.613 56.3666 201.367 53.0127 214.379 48.0264C228.56 42.6909 240.649 34.896 252.337 27.3578C269.714 16.152 287.684 4.56492 312.75 1.015C313.94 0.843922 315.122 0.701356 316.297 0.587302C337.822 -1.51912 356.499 5.39537 374.595 12.096C380.973 14.4591 387.566 16.9005 394.096 18.8572Z" fill="white"/>
</mask>
<g mask="url(#mask1_2444_106)">
<path d="M394.096 18.8573L395.472 77.3382C388.942 75.3815 382.348 72.9401 375.971 70.577C367.419 67.4085 358.737 64.1936 349.685 61.9054L348.31 3.42444C357.361 5.71264 366.044 8.92752 374.595 12.0961C380.973 14.4591 387.566 16.9006 394.096 18.8573Z" fill="black"/>
<path d="M348.31 3.428L349.685 61.9089C344.674 60.6437 339.548 59.6599 334.269 59.1289L332.894 0.647949C338.173 1.17901 343.299 2.16272 348.31 3.428Z" fill="black"/>
<path d="M332.894 0.647944L334.269 59.1289C328.911 58.5871 323.393 58.5123 317.675 59.0719C316.5 59.1859 315.319 59.3285 314.128 59.4996C289.059 63.053 271.093 74.6366 253.715 85.8424C242.028 93.3806 229.942 101.175 215.758 106.511C202.742 111.494 187.989 114.848 172.951 116.323C166.947 116.911 160.894 117.2 154.89 117.171L153.514 58.6905C159.519 58.719 165.571 58.4303 171.576 57.8422C186.616 56.3702 201.37 53.0163 214.382 48.0301C228.563 42.6945 240.652 34.8996 252.34 27.3614C269.717 16.1557 287.687 4.56853 312.753 1.01862C313.944 0.847537 315.125 0.704971 316.3 0.590917C322.018 0.031342 327.535 0.10619 332.894 0.647944Z" fill="black"/>
<path d="M205.27 70.3631C212.287 68.3137 209.616 75.4171 209.581 75.492C208.893 76.882 207.509 77.9192 205.464 78.575C204.283 78.935 203.093 79.2843 201.892 79.6193L201.698 71.4074C202.898 71.0724 204.089 70.7231 205.27 70.3631ZM196.467 97.1194C198.422 96.6525 200.354 96.1499 202.265 95.6153L202.013 84.9192C203.322 84.5521 204.621 84.1743 205.907 83.7787C217.811 79.9044 216.738 67.355 213.153 65.0668C210.657 63.4736 207.021 64.5428 205.468 64.9991C202.306 65.9721 199.068 66.8524 195.773 67.6437L196.467 97.1194Z" fill="white"/>
<path d="M218.321 90.1514C223.326 88.1127 228.076 85.7782 232.648 83.2761L232.524 77.9691C229.547 79.5979 226.497 81.1555 223.348 82.6061L222.781 58.4374C221.094 59.2144 219.378 59.9629 217.63 60.6757L218.324 90.1514" fill="white"/>
<path d="M243.811 54.2779C244.081 55.3507 244.339 56.1812 244.696 57.14C245.562 59.3141 246.428 61.4847 247.29 63.6588C245.16 65.0132 243.005 66.364 240.821 67.6935C242.604 60.1802 243.599 55.7083 243.807 54.2779M232.852 83.162C234.584 82.2103 236.287 81.2373 237.975 80.2465C238.831 76.4186 239.28 74.3941 239.433 73.7027C242.645 71.778 245.784 69.8035 248.882 67.8182C249.831 70.4557 250.264 71.6746 250.538 72.4409C251.48 71.835 252.416 71.2291 253.352 70.6268C254.011 70.2026 254.674 69.7749 255.336 69.3508C254.065 67.267 250.82 59.3747 245.603 45.674C244.307 46.4938 243.005 47.3064 241.69 48.1155C240.035 54.8589 236.953 67.4083 232.852 83.162Z" fill="white"/>
<path d="M256.313 68.7236C257.685 67.8432 259.061 66.9629 260.449 66.0861L260.089 50.7174C260.01 47.5167 259.885 46.5437 259.815 46.0198C260.239 46.4902 260.529 46.7932 261.347 47.5346C265.244 51.0346 266.645 52.2892 273.426 58.3483C274.455 57.7815 275.496 57.222 276.543 56.6731L275.849 27.1974C274.375 27.9708 272.92 28.7621 271.481 29.5676L271.828 44.2626C271.901 47.1853 272.013 48.226 272.108 48.9674C271.92 48.7606 271.344 48.1262 270.507 47.3991C266.164 43.5249 263.025 40.7234 258.991 37.0951C257.864 37.8115 256.74 38.5279 255.622 39.2479L256.316 68.7236" fill="white"/>
<path d="M287.575 27.0476C293.252 24.8272 291.281 31.0146 291.252 31.0823C290.718 32.3012 289.699 33.1317 287.738 33.955C286.703 34.3756 285.678 34.8104 284.665 35.2559L284.503 28.3486C285.515 27.903 286.54 27.4718 287.575 27.0476ZM288.788 38.3746C293.936 36.4071 293.892 40.3883 293.007 42.3059C292.087 44.2947 289.734 45.257 288.96 45.5742C287.604 46.1124 286.267 46.672 284.952 47.2529L284.783 40.0533C286.101 39.4759 287.435 38.9163 288.791 38.3746M280.039 54.8981C283.115 53.3904 286.286 51.9755 289.575 50.6852C301.632 45.7952 300.062 36.1755 296.843 34.3435C295.465 33.5594 293.659 33.7126 292.889 33.7768C300.234 28.0599 296.942 21.5481 293.354 20.7818C291.224 20.3256 288.922 21.206 287.938 21.5838C284.984 22.7706 282.128 24.0573 279.345 25.4224L280.039 54.8981Z" fill="white"/>
<path d="M315.736 19.4167C315.844 19.4096 316.096 19.3882 316.239 19.4096L320.7 20.208C321.333 20.5466 323.266 21.5838 324.543 24.1357C326.049 27.1474 326.354 31.7417 323.645 35.2239C322.772 36.3466 321.483 37.3837 320.435 37.8079L316.389 39.0161C316.389 39.0161 315.185 39.2229 314.307 39.0161C314.256 39.0054 314.189 38.9805 314.138 38.9627C313.956 38.8949 313.88 38.649 313.676 38.6098C312.683 38.428 311.651 38.7809 310.677 38.3247C309.515 37.7794 308.853 37.1307 308.569 36.8527C307.936 36.2361 306.449 34.4469 306.283 31.1856C306.178 29.1149 306.541 26.039 308.865 23.1484C309.509 22.3465 310.451 21.5695 310.556 21.5018C310.674 21.4234 310.836 21.3307 310.964 21.2701C311.699 20.9137 312.514 20.8389 313.25 20.4931C313.507 20.3719 313.606 20.044 313.854 19.9086C314.431 19.595 315.281 19.4702 315.736 19.4203M316.325 44.5085C335.215 41.978 334.833 24.82 326.65 17.4671C316.121 8.00071 298.843 18.4901 300.24 33.4988C300.597 37.3374 302.313 40.3349 305.338 42.4057C305.777 42.705 306.99 43.4607 308.802 43.9953C310.604 44.5263 312.476 44.1842 314.294 44.5299C314.504 44.5691 314.994 44.6653 316.322 44.5085" fill="white"/>
<path d="M348.972 22.2077C358.31 24.7382 360.243 37.6797 355.174 41.1904C349.781 44.9257 338.271 37.8544 340.401 27.5931C341.143 24.0147 344.082 20.9638 348.972 22.2077ZM349.561 47.2994C362.863 50.55 367.209 37.8579 360.622 26.3599C352.427 12.0569 336.848 13.782 334.378 25.8788C332.534 34.9246 339.484 44.7332 349.561 47.2959" fill="white"/>
<path d="M366.843 52.1608C368.648 52.8059 370.447 53.4617 372.236 54.1211L371.93 41.1119C374.157 43.3597 377.331 48.8295 381.453 57.5213C383.736 58.3518 386.035 59.1715 388.337 59.9556C385.338 54.9088 381.864 49.035 376.821 40.2921C380.164 36.924 383.529 33.5843 386.872 30.2162C384.519 29.4071 382.17 28.566 379.842 27.7141C378.298 30.3231 377.228 33.2778 375.232 35.5482C374.478 36.4072 372.86 36.4678 371.832 36.817L371.545 24.649C369.756 23.9896 367.957 23.3338 366.152 22.6887L366.846 52.1644" fill="white"/>
<path d="M184.515 56.2811C195.003 54.4741 205.13 51.7546 214.382 48.2154C228.563 42.8798 240.652 35.085 252.34 27.5468C269.717 16.341 287.687 4.75388 312.753 1.20397C313.944 1.03289 315.125 0.89032 316.3 0.776267C337.826 -1.33016 356.502 5.58434 374.599 12.285C380.976 14.648 387.569 17.0895 394.1 19.0462L394.154 21.3843C387.624 19.4276 381.03 16.9861 374.653 14.6231C356.559 7.92243 337.88 1.00437 316.354 3.11436C315.179 3.22842 313.998 3.37098 312.807 3.54206C287.738 7.09554 269.771 18.6791 252.394 29.8849C240.706 37.4231 228.62 45.2179 214.437 50.5535C205.184 54.0963 195.057 56.8157 184.569 58.6192L184.515 56.2811Z" fill="black"/>
<path d="M187.03 112.207C197.091 110.403 206.802 107.758 215.701 104.351C229.881 99.0155 241.97 91.2207 253.658 83.6824C271.035 72.4767 289.005 60.8896 314.071 57.3397C315.262 57.1686 316.443 57.026 317.618 56.9119C339.144 54.8055 357.82 61.72 375.917 68.4207C382.294 70.7837 388.888 73.2252 395.418 75.1819L395.469 77.3382C388.939 75.3815 382.345 72.94 375.968 70.577C357.874 63.8763 339.195 56.9583 317.669 59.0683C316.494 59.1823 315.313 59.3249 314.122 59.496C289.053 63.0495 271.086 74.633 253.709 85.8388C242.021 93.377 229.936 101.172 215.752 106.507C206.853 109.915 197.142 112.559 187.081 114.363L187.03 112.207Z" fill="black"/>
<path d="M187.03 112.207C186.632 112.278 186.234 112.349 185.833 112.417C186.231 112.349 186.632 112.278 187.03 112.207Z" fill="white"/>
<path d="M153.833 72.4838C154.746 72.4873 155.66 72.4838 156.574 72.4766L156.86 84.6447C159.414 81.2766 162.314 77.4273 166.202 72.1024C168.102 71.9776 170 71.8208 171.894 71.6355C172.687 71.5571 173.477 71.4751 174.266 71.386C173.282 72.0168 171.974 72.9471 171.226 73.8987C168.157 77.7908 165.533 82.0785 162.639 86.1238C169.094 94.8109 173.493 99.6891 175.836 100.758C174.753 100.883 173.671 101.001 172.585 101.108C171.044 101.257 169.5 101.389 167.953 101.5C164.957 98.1565 161.55 94.3179 156.959 88.936L157.265 101.945C156.424 101.952 155.631 101.959 154.523 101.952L153.829 72.4766" fill="white"/>
<path d="M153.511 58.8722C159.516 58.9007 165.568 58.612 171.573 58.0239C175.922 57.5962 180.249 57.0153 184.512 56.2811L184.566 58.6192C180.3 59.3534 175.976 59.9379 171.627 60.362C165.622 60.9501 159.57 61.2388 153.565 61.2103L153.511 58.8722Z" fill="black"/>
<path d="M154.832 115.008C160.837 115.036 166.889 114.748 172.894 114.16C177.243 113.732 181.57 113.151 185.833 112.417C186.231 112.349 186.632 112.278 187.03 112.206L187.081 114.363C182.43 115.197 177.702 115.853 172.945 116.316C166.94 116.904 160.888 117.193 154.883 117.164L154.832 115.008Z" fill="black"/>
</g>
<path d="M316.262 0.38782C337.892 -1.7293 356.62 5.20302 374.764 11.9215C381.135 14.281 387.722 16.7224 394.236 18.672C401.486 20.6751 408.019 21.3915 413.916 20.8141C419.812 20.2367 424.957 18.4047 429.625 15.2932C425.129 18.5829 419.86 20.4434 413.96 21.0208C408.061 21.5982 401.416 20.8818 394.096 18.8609C387.566 16.9042 380.973 14.4627 374.595 12.0997C356.502 5.39905 337.822 -1.51901 316.297 0.590977C315.122 0.705031 313.941 0.847598 312.75 1.01868C287.68 4.57216 269.714 16.1557 252.337 27.3615C240.649 34.8997 228.563 42.6945 214.379 48.0301C201.364 53.0128 186.61 56.3667 171.573 57.8423C165.568 58.4304 159.516 58.7191 153.511 58.6905C138.986 58.801 124.978 56.3061 111.427 53.8896C103.697 52.5103 95.7088 51.0882 87.727 50.1686C79.0638 49.0815 70.165 48.9853 61.3172 49.8514C53.7716 50.5892 46.2641 52.0291 38.97 54.1569C23.9519 58.5373 10.478 65.5765 0.00640869 74.5226C10.2583 65.4304 23.7768 58.3662 38.8458 53.9716C46.1686 51.8366 53.7079 50.3896 61.2822 49.6482C70.1682 48.7786 79.0989 48.8748 87.7971 49.9655C95.7884 50.885 103.789 52.3107 111.52 53.69C125.051 56.103 139.037 58.5943 153.521 58.4838C159.509 58.5123 165.549 58.2236 171.538 57.6391C186.537 56.1707 201.246 52.8239 214.227 47.8555C228.372 42.5306 240.445 34.75 252.117 27.2225C269.529 15.9953 287.531 4.38682 312.696 0.819084C313.893 0.648004 315.084 0.505437 316.265 0.391384L316.262 0.38782Z" fill="black"/>
<mask id="mask2_2444_106" style="mask-type:luminance" maskUnits="userSpaceOnUse" x="0" y="49" width="155" height="84">
<path d="M153.508 58.687L154.883 117.168C140.359 117.278 126.35 114.783 112.8 112.367C105.069 110.988 97.081 109.566 89.0992 108.646C80.436 107.559 71.5372 107.463 62.6894 108.329C55.1438 109.067 47.6363 110.506 40.3422 112.634C25.3241 117.015 11.8502 124.054 1.37859 133L0 74.5226C10.4716 65.5765 23.9455 58.5373 38.9636 54.1569C46.2577 52.0291 53.7652 50.5892 61.3108 49.8514C70.1587 48.9853 79.0606 49.0815 87.7206 50.1686C95.6992 51.0846 103.691 52.5103 111.421 53.8896C124.971 56.3025 138.98 58.801 153.505 58.6905L153.508 58.687Z" fill="white"/>
</mask>
<g mask="url(#mask2_2444_106)">
<path d="M153.508 58.6871L154.883 117.168C149.604 117.207 144.393 116.904 139.247 116.384L137.872 57.903C143.017 58.4233 148.229 58.7263 153.508 58.6871Z" fill="black"/>
<path d="M137.872 57.9029L139.248 116.384C130.234 115.475 121.425 113.903 112.796 112.367C105.066 110.988 97.078 109.566 89.0961 108.646C88.1888 108.532 87.2782 108.429 86.3644 108.336L84.989 49.855C85.9028 49.9476 86.8133 50.051 87.7207 50.1651C95.6994 51.0811 103.691 52.5067 111.421 53.8861C120.046 55.4222 128.859 56.994 137.872 57.9029Z" fill="black"/>
<path d="M84.9921 49.8587L86.3675 108.34C78.5703 107.552 70.6107 107.556 62.6894 108.333C55.1438 109.07 47.6363 110.51 40.3422 112.638C25.3241 117.018 11.8502 124.058 1.37859 133.004L0 74.5228C10.4716 65.5767 23.9455 58.5374 38.9636 54.1571C46.2577 52.0293 53.7652 50.5893 61.3108 49.8516C69.2322 49.0746 77.1949 49.071 84.9889 49.8587" fill="black"/>
<path d="M0.894775 112.581C1.79898 111.807 2.72547 111.048 3.67425 110.307L3.79842 115.614C2.84964 116.359 1.92315 117.118 1.01894 117.888L0.894775 112.581Z" fill="white"/>
<path d="M14.4832 85.9707C14.7411 86.9865 15.0117 87.8205 15.416 88.8506C16.3234 91.0105 17.0398 92.7177 18.2082 95.4728C15.8649 96.7096 13.5981 98.0176 11.4108 99.3934C13.3083 91.431 14.3325 86.9568 14.4832 85.9707ZM3.97656 115.475C5.47614 114.306 7.02985 113.172 8.63131 112.078C9.22986 109.229 9.69682 107.021 10.0322 105.452C13.1714 103.396 16.4858 101.486 19.9562 99.732C20.5738 101.314 21.1915 102.897 21.8123 104.479C23.643 103.592 25.5151 102.751 27.4222 101.956C25.2477 97.1907 21.1978 88.3231 16.4062 77.431C15.0053 78.1937 13.6331 78.9849 12.2927 79.8011C10.6849 86.2665 7.6889 98.2992 3.97975 115.479" fill="white"/>
<path d="M28.5937 101.468C30.2397 100.801 31.9081 100.17 33.605 99.5716L33.2453 84.2029C33.1593 80.9702 33.0256 80.0685 32.9364 79.4733C33.7101 80.3073 34.2641 80.8063 34.799 81.291C38.2396 82.6026 43.3146 87.1897 50.024 95.0523C51.3357 94.7885 52.6506 94.5462 53.9687 94.3252L53.2747 64.8495C51.4217 65.1596 49.5719 65.5124 47.7316 65.9116L48.0787 80.6067C48.1583 83.8002 48.2952 84.6663 48.4066 85.3613C47.7603 84.6805 47.2509 84.1424 46.369 83.3582C42.039 77.4952 39.562 74.2411 39.562 74.2411C39.1258 73.849 35.2033 71.9458 31.9781 70.4345C30.6027 70.9335 29.2464 71.4539 27.906 71.9957L28.6001 101.471" fill="white"/>
<path d="M67.6562 68.5704C73.9856 68.3423 72.4701 73.2858 71.792 74.1233C70.9546 75.157 69.315 75.3886 67.8186 75.4742C66.5769 75.5348 65.3352 75.6167 64.0935 75.7165L63.9311 68.8092C65.1728 68.7094 66.4145 68.631 67.6562 68.5668M69.0539 80.2252C75.7176 80.0434 74.7593 84.7232 73.7405 85.9029C72.5688 87.2573 70.0504 87.3856 69.2226 87.4248C67.6053 87.489 65.9911 87.5852 64.3737 87.7171L64.2049 80.5175C65.8223 80.3892 67.4365 80.2894 69.0539 80.2252ZM58.3244 93.6764C59.6584 93.5017 60.9956 93.3485 62.3329 93.2166C64.864 92.9671 67.3983 92.7996 69.9326 92.7105C84.0497 92.0547 81.197 81.9182 78.841 79.4946C77.2809 77.8871 74.893 77.3347 73.8742 77.0994C81.8592 74.159 78.6563 66.7134 74.8612 64.5856C72.3173 63.16 69.3755 63.2455 68.121 63.2811C65.9624 63.3774 63.8006 63.5306 61.6451 63.7409C60.3079 63.8728 58.9707 64.026 57.6367 64.2007L58.3308 93.6764" fill="white"/>
<path d="M97.7876 70.3026C107.715 71.992 109.867 84.3419 104.677 88.5404C98.5835 93.4697 87.0263 86.8689 88.5322 76.8999C89.1212 72.99 92.2127 69.4365 97.7876 70.3026ZM98.3766 95.3979C112.545 97.4544 117.581 83.4829 110.176 72.8153C101.583 60.437 83.4668 62.6788 82.085 76.2904C81.1712 85.2864 88.4781 93.8582 98.3766 95.3979Z" fill="white"/>
<path d="M131.237 75.877C141.48 77.4024 143.514 89.3175 138.216 93.8404C132.173 99.0013 120.813 92.7284 122.004 82.6489C122.434 79.0063 125.112 75.0465 131.237 75.877ZM131.829 100.972C145.619 102.68 151.591 88.1306 144.406 78.2258C136.252 66.9808 117.2 66.9665 115.799 81.2874C114.898 90.4936 122.389 99.6928 131.829 100.976" fill="white"/>
<path d="M151.074 73.0662C151.798 73.0731 152.621 73.0784 153.343 73.0789L154.014 101.555C153.257 101.557 152.5 101.553 151.745 101.543L151.074 73.0662Z" fill="white" stroke="white"/>
<path d="M0.00634766 74.8041C10.4779 65.8581 23.9519 58.8188 38.9699 54.4385C46.2641 52.3107 53.7715 50.8707 61.3172 50.1329C70.165 49.2669 79.067 49.3631 87.7269 50.4502C95.7056 51.3661 103.697 52.7918 111.427 54.1712C124.978 56.5841 138.986 59.0826 153.511 58.9721L153.565 61.3102C139.041 61.4207 125.032 58.9258 111.481 56.5092C103.751 55.1299 95.7629 53.7078 87.7811 52.7883C79.1179 51.7012 70.2191 51.6049 61.3713 52.471C53.8256 53.2088 46.3182 54.6487 39.0241 56.7766C24.006 61.1534 10.5352 68.1962 0.0604726 77.1387L0.00634766 74.8006" fill="black"/>
<path d="M1.32764 130.94C11.7992 121.994 25.2731 114.955 40.2912 110.574C47.5854 108.446 55.0928 107.006 62.6385 106.269C71.4863 105.403 80.3882 105.499 89.0482 106.586C97.0269 107.502 105.018 108.928 112.749 110.307C126.299 112.72 140.308 115.218 154.832 115.108L154.88 117.168C140.355 117.278 126.347 114.783 112.796 112.367C105.066 110.988 97.0778 109.566 89.096 108.646C80.4328 107.559 71.534 107.463 62.6862 108.329C55.1406 109.067 47.6331 110.506 40.339 112.634C25.3209 117.015 11.847 124.054 1.37539 133L1.32764 130.94Z" fill="black"/>
</g>
</svg>
