<svg width="65" height="65" viewBox="0 0 65 65" fill="none" xmlns="http://www.w3.org/2000/svg">
<path d="M39.2708 25.0521H5.41666C4.30624 25.0521 3.38541 24.1313 3.38541 23.0208C3.38541 21.9104 4.30624 20.9896 5.41666 20.9896H39.2708C40.3812 20.9896 41.3021 21.9104 41.3021 23.0208C41.3021 24.1313 40.3812 25.0521 39.2708 25.0521Z" fill="url(#paint0_linear_2477_4970)"/>
<path d="M21.6667 46.7188H16.25C15.1396 46.7188 14.2188 45.7979 14.2188 44.6875C14.2188 43.5771 15.1396 42.6562 16.25 42.6562H21.6667C22.7771 42.6562 23.6979 43.5771 23.6979 44.6875C23.6979 45.7979 22.7771 46.7188 21.6667 46.7188Z" fill="url(#paint1_linear_2477_4970)"/>
<path d="M39.2708 46.7188H28.4375C27.3271 46.7188 26.4062 45.7979 26.4062 44.6875C26.4062 43.5771 27.3271 42.6562 28.4375 42.6562H39.2708C40.3812 42.6562 41.3021 43.5771 41.3021 44.6875C41.3021 45.7979 40.3812 46.7188 39.2708 46.7188Z" fill="url(#paint2_linear_2477_4970)"/>
<path d="M47.5583 57.5521H17.4417C6.66249 57.5521 3.38541 54.3021 3.38541 43.6313V21.3688C3.38541 10.6979 6.66249 7.44792 17.4417 7.44792H39.2708C40.3812 7.44792 41.3021 8.36875 41.3021 9.47917C41.3021 10.5896 40.3812 11.5104 39.2708 11.5104H17.4417C8.93749 11.5104 7.44791 12.9729 7.44791 21.3688V43.6042C7.44791 52 8.93749 53.4625 17.4417 53.4625H47.5312C56.0354 53.4625 57.525 52 57.525 43.6042V37.9708C57.525 36.8604 58.4458 35.9396 59.5562 35.9396C60.6667 35.9396 61.5875 36.8604 61.5875 37.9708V43.6042C61.6146 54.3021 58.3375 57.5521 47.5583 57.5521Z" fill="url(#paint3_linear_2477_4970)"/>
<path d="M54.1667 27.7604C53.8958 27.7604 53.6521 27.7062 53.3813 27.5979C52.6229 27.2729 52.1354 26.5417 52.1354 25.7292V9.47917C52.1354 8.36875 53.0563 7.44792 54.1667 7.44792C55.2771 7.44792 56.1979 8.36875 56.1979 9.47917V20.8271L58.1479 18.8771C58.9333 18.0917 60.2333 18.0917 61.0188 18.8771C61.8042 19.6625 61.8042 20.9625 61.0188 21.7479L55.6021 27.1646C55.2229 27.5438 54.7083 27.7604 54.1667 27.7604Z" fill="url(#paint4_linear_2477_4970)"/>
<path d="M54.1667 27.7604C53.6521 27.7604 53.1375 27.5708 52.7313 27.1646L47.3146 21.7479C46.5292 20.9625 46.5292 19.6625 47.3146 18.8771C48.1 18.0917 49.4 18.0917 50.1854 18.8771L55.6021 24.2938C56.3875 25.0792 56.3875 26.3792 55.6021 27.1646C55.1958 27.5708 54.6813 27.7604 54.1667 27.7604Z" fill="url(#paint5_linear_2477_4970)"/>
<defs>
<linearGradient id="paint0_linear_2477_4970" x1="22.3437" y1="20.9896" x2="22.3437" y2="25.0521" gradientUnits="userSpaceOnUse">
<stop stop-color="#09DFB8"/>
<stop offset="0.5" stop-color="#28E1E4"/>
<stop offset="1" stop-color="#9BFFEB"/>
</linearGradient>
<linearGradient id="paint1_linear_2477_4970" x1="18.9583" y1="42.6562" x2="18.9583" y2="46.7188" gradientUnits="userSpaceOnUse">
<stop stop-color="#09DFB8"/>
<stop offset="0.5" stop-color="#28E1E4"/>
<stop offset="1" stop-color="#9BFFEB"/>
</linearGradient>
<linearGradient id="paint2_linear_2477_4970" x1="33.8542" y1="42.6562" x2="33.8542" y2="46.7188" gradientUnits="userSpaceOnUse">
<stop stop-color="#09DFB8"/>
<stop offset="0.5" stop-color="#28E1E4"/>
<stop offset="1" stop-color="#9BFFEB"/>
</linearGradient>
<linearGradient id="paint3_linear_2477_4970" x1="32.4865" y1="7.44792" x2="32.4865" y2="57.5521" gradientUnits="userSpaceOnUse">
<stop stop-color="#09DFB8"/>
<stop offset="0.5" stop-color="#28E1E4"/>
<stop offset="1" stop-color="#9BFFEB"/>
</linearGradient>
<linearGradient id="paint4_linear_2477_4970" x1="56.8716" y1="7.44792" x2="56.8716" y2="27.7604" gradientUnits="userSpaceOnUse">
<stop stop-color="#09DFB8"/>
<stop offset="0.5" stop-color="#28E1E4"/>
<stop offset="1" stop-color="#9BFFEB"/>
</linearGradient>
<linearGradient id="paint5_linear_2477_4970" x1="51.4583" y1="18.288" x2="51.4583" y2="27.7604" gradientUnits="userSpaceOnUse">
<stop stop-color="#09DFB8"/>
<stop offset="0.5" stop-color="#28E1E4"/>
<stop offset="1" stop-color="#9BFFEB"/>
</linearGradient>
</defs>
</svg>
