<svg width="67" height="67" viewBox="0 0 67 67" fill="none" xmlns="http://www.w3.org/2000/svg">
<path d="M40.4792 25.8229H5.58334C4.43876 25.8229 3.48959 24.8737 3.48959 23.7292C3.48959 22.5846 4.43876 21.6354 5.58334 21.6354H40.4792C41.6238 21.6354 42.5729 22.5846 42.5729 23.7292C42.5729 24.8737 41.6238 25.8229 40.4792 25.8229Z" fill="url(#paint0_linear_2477_4959)"/>
<path d="M22.3333 48.1562H16.75C15.6054 48.1562 14.6562 47.2071 14.6562 46.0625C14.6562 44.9179 15.6054 43.9688 16.75 43.9688H22.3333C23.4779 43.9688 24.4271 44.9179 24.4271 46.0625C24.4271 47.2071 23.4779 48.1562 22.3333 48.1562Z" fill="url(#paint1_linear_2477_4959)"/>
<path d="M40.4792 48.1562H29.3125C28.1679 48.1562 27.2188 47.2071 27.2188 46.0625C27.2188 44.9179 28.1679 43.9688 29.3125 43.9688H40.4792C41.6238 43.9688 42.5729 44.9179 42.5729 46.0625C42.5729 47.2071 41.6238 48.1562 40.4792 48.1562Z" fill="url(#paint2_linear_2477_4959)"/>
<path d="M49.0217 59.3229H17.9783C6.86751 59.3229 3.48959 55.9729 3.48959 44.9737V22.0262C3.48959 11.0271 6.86751 7.67708 17.9783 7.67708H40.4792C41.6238 7.67708 42.5729 8.62625 42.5729 9.77083C42.5729 10.9154 41.6238 11.8646 40.4792 11.8646H17.9783C9.21251 11.8646 7.67709 13.3721 7.67709 22.0262V44.9458C7.67709 53.6 9.21251 55.1075 17.9783 55.1075H48.9938C57.7596 55.1075 59.295 53.6 59.295 44.9458V39.1392C59.295 37.9946 60.2442 37.0454 61.3888 37.0454C62.5333 37.0454 63.4825 37.9946 63.4825 39.1392V44.9458C63.5104 55.9729 60.1325 59.3229 49.0217 59.3229Z" fill="url(#paint3_linear_2477_4959)"/>
<path d="M55.8333 28.6146C54.6888 28.6146 53.7396 27.6654 53.7396 26.5208V9.77083C53.7396 8.93333 54.2421 8.15167 55.0238 7.84458C55.8054 7.5375 56.6988 7.705 57.3129 8.29125L62.8963 13.8746C63.7058 14.6842 63.7058 16.0242 62.8963 16.8338C62.0867 17.6433 60.7467 17.6433 59.9371 16.8338L57.9271 14.8238V26.5208C57.9271 27.6654 56.9779 28.6146 55.8333 28.6146Z" fill="url(#paint4_linear_2477_4959)"/>
<path d="M50.25 17.4479C49.7196 17.4479 49.1892 17.2525 48.7704 16.8338C47.9608 16.0242 47.9608 14.6842 48.7704 13.8746L54.3538 8.29126C55.1633 7.48167 56.5033 7.48167 57.3129 8.29126C58.1225 9.10084 58.1225 10.4408 57.3129 11.2504L51.7296 16.8338C51.3108 17.2525 50.7804 17.4479 50.25 17.4479Z" fill="url(#paint5_linear_2477_4959)"/>
<defs>
<linearGradient id="paint0_linear_2477_4959" x1="23.0313" y1="21.6354" x2="23.0313" y2="25.8229" gradientUnits="userSpaceOnUse">
<stop offset="0.288462" stop-color="#DD0A31"/>
<stop offset="1" stop-color="#FF5900"/>
</linearGradient>
<linearGradient id="paint1_linear_2477_4959" x1="19.5417" y1="43.9688" x2="19.5417" y2="48.1562" gradientUnits="userSpaceOnUse">
<stop offset="0.288462" stop-color="#DD0A31"/>
<stop offset="1" stop-color="#FF5900"/>
</linearGradient>
<linearGradient id="paint2_linear_2477_4959" x1="34.8958" y1="43.9688" x2="34.8958" y2="48.1562" gradientUnits="userSpaceOnUse">
<stop offset="0.288462" stop-color="#DD0A31"/>
<stop offset="1" stop-color="#FF5900"/>
</linearGradient>
<linearGradient id="paint3_linear_2477_4959" x1="33.4861" y1="7.67708" x2="33.4861" y2="59.3229" gradientUnits="userSpaceOnUse">
<stop offset="0.288462" stop-color="#DD0A31"/>
<stop offset="1" stop-color="#FF5900"/>
</linearGradient>
<linearGradient id="paint4_linear_2477_4959" x1="58.6215" y1="7.69361" x2="58.6215" y2="28.6146" gradientUnits="userSpaceOnUse">
<stop offset="0.288462" stop-color="#DD0A31"/>
<stop offset="1" stop-color="#FF5900"/>
</linearGradient>
<linearGradient id="paint5_linear_2477_4959" x1="53.0417" y1="7.68407" x2="53.0417" y2="17.4479" gradientUnits="userSpaceOnUse">
<stop offset="0.288462" stop-color="#DD0A31"/>
<stop offset="1" stop-color="#FF5900"/>
</linearGradient>
</defs>
</svg>
