<svg width="34" height="34" viewBox="0 0 34 34" fill="none" xmlns="http://www.w3.org/2000/svg">
<path d="M17.2261 16.4616C17.1836 16.4616 17.1553 16.4616 17.1128 16.4616C17.0419 16.4475 16.9428 16.4475 16.8578 16.4616C12.7494 16.3341 9.64694 13.1041 9.64694 9.12331C9.64694 5.07165 12.9478 1.77081 16.9994 1.77081C21.0511 1.77081 24.3519 5.07165 24.3519 9.12331C24.3378 13.1041 21.2211 16.3341 17.2686 16.4616C17.2544 16.4616 17.2403 16.4616 17.2261 16.4616ZM16.9994 3.89581C14.1236 3.89581 11.7719 6.24748 11.7719 9.12331C11.7719 11.9566 13.9819 14.2375 16.8011 14.3366C16.8719 14.3225 17.0703 14.3225 17.2544 14.3366C20.0311 14.2091 22.2128 11.9283 22.2269 9.12331C22.2269 6.24748 19.8753 3.89581 16.9994 3.89581Z" fill="#B6B6B6"/>
<path d="M17.2403 31.9459C14.4636 31.9459 11.6728 31.2375 9.56195 29.8209C7.59278 28.5175 6.51611 26.7325 6.51611 24.7917C6.51611 22.8509 7.59278 21.0517 9.56195 19.7342C13.8119 16.915 20.6969 16.915 24.9186 19.7342C26.8736 21.0375 27.9644 22.8225 27.9644 24.7634C27.9644 26.7042 26.8878 28.5034 24.9186 29.8209C22.7936 31.2375 20.0169 31.9459 17.2403 31.9459ZM10.7378 21.5192C9.37778 22.4259 8.64111 23.5875 8.64111 24.8059C8.64111 26.01 9.39195 27.1717 10.7378 28.0642C14.2653 30.43 20.2153 30.43 23.7428 28.0642C25.1028 27.1575 25.8394 25.9959 25.8394 24.7775C25.8394 23.5734 25.0886 22.4117 23.7428 21.5192C20.2153 19.1675 14.2653 19.1675 10.7378 21.5192Z" fill="#B6B6B6"/>
</svg>
