<svg width="109" height="109" viewBox="0 0 109 109" fill="none" xmlns="http://www.w3.org/2000/svg">
<rect width="109" height="109" rx="54.5" fill="url(#paint0_linear_2481_5019)" fill-opacity="0.1"/>
<path d="M71.0025 85.4062H37.9975C30.8388 85.4062 25.0312 79.5987 25.0312 72.44V53.0913C25.0312 45.9325 30.8388 40.125 37.9975 40.125H71.0025C78.1613 40.125 83.9688 45.9325 83.9688 53.0913V57.2313C83.9688 58.41 82.9912 59.3875 81.8125 59.3875H76.005C74.9987 59.3875 74.0788 59.7613 73.4175 60.4513L73.3887 60.48C72.5837 61.2563 72.21 62.3199 72.2963 63.4124C72.4688 65.3099 74.28 66.8337 76.35 66.8337H81.8125C82.9912 66.8337 83.9688 67.8112 83.9688 68.9899V72.4112C83.9688 79.5987 78.1613 85.4062 71.0025 85.4062ZM37.9975 44.4375C33.225 44.4375 29.3438 48.3188 29.3438 53.0913V72.44C29.3438 77.2125 33.225 81.0938 37.9975 81.0938H71.0025C75.775 81.0938 79.6562 77.2125 79.6562 72.44V71.175H76.35C72.0088 71.175 68.3288 67.955 67.9838 63.815C67.7537 61.4575 68.6162 59.1288 70.3413 57.4326C71.8363 55.9088 73.8487 55.075 76.005 55.075H79.6562V53.0913C79.6562 48.3188 75.775 44.4375 71.0025 44.4375H37.9975Z" fill="url(#paint1_linear_2481_5019)"/>
<path d="M27.1875 57.835C26.0088 57.835 25.0312 56.8575 25.0312 55.6788V42.5402C25.0312 38.2564 27.7337 34.375 31.73 32.8513L54.5575 24.2263C56.915 23.335 59.5312 23.6514 61.5725 25.0889C63.6425 26.5264 64.85 28.8551 64.85 31.3564V42.2813C64.85 43.4601 63.8725 44.4376 62.6938 44.4376C61.515 44.4376 60.5375 43.4601 60.5375 42.2813V31.3564C60.5375 30.2639 60.02 29.2576 59.1 28.6251C58.18 27.9926 57.0875 27.8488 56.0525 28.2513L33.225 36.8763C30.8962 37.7676 29.315 40.0389 29.315 42.5402V55.6788C29.3438 56.8863 28.3663 57.835 27.1875 57.835Z" fill="url(#paint2_linear_2481_5019)"/>
<path d="M76.3499 71.1748C72.0087 71.1748 68.3287 67.9548 67.9837 63.8148C67.7537 61.4285 68.6162 59.0999 70.3412 57.4036C71.8074 55.9086 73.8199 55.0749 75.9762 55.0749H81.9562C84.8024 55.1611 86.9874 57.4035 86.9874 60.1635V66.0862C86.9874 68.8462 84.8024 71.0885 82.0424 71.1748H76.3499ZM81.8987 59.3874H76.0049C74.9987 59.3874 74.0787 59.7611 73.4174 60.4511C72.5837 61.2561 72.1812 62.3485 72.2962 63.441C72.4687 65.3385 74.2799 66.8623 76.3499 66.8623H81.9849C82.3587 66.8623 82.7037 66.5174 82.7037 66.0862V60.1635C82.7037 59.7322 82.3587 59.4161 81.8987 59.3874Z" fill="url(#paint3_linear_2481_5019)"/>
<path d="M60.25 56.6562H40.125C38.9463 56.6562 37.9688 55.6788 37.9688 54.5C37.9688 53.3213 38.9463 52.3438 40.125 52.3438H60.25C61.4287 52.3438 62.4062 53.3213 62.4062 54.5C62.4062 55.6788 61.4287 56.6562 60.25 56.6562Z" fill="url(#paint4_linear_2481_5019)"/>
<path d="M77.376 30.2155C78.2561 29.3354 79.7097 29.3354 80.5898 30.2155C81.4699 31.0955 81.4698 32.5483 80.5898 33.4284L26.624 87.3883C26.1699 87.8424 25.592 88.0553 25.0166 88.0553C24.4413 88.0552 23.8642 87.8423 23.4102 87.3883C22.5301 86.5083 22.5302 85.0555 23.4102 84.1754L77.376 30.2155Z" fill="url(#paint5_linear_2481_5019)" stroke="url(#paint6_linear_2481_5019)" stroke-width="0.5"/>
<defs>
<linearGradient id="paint0_linear_2481_5019" x1="54.5" y1="0" x2="54.5" y2="109" gradientUnits="userSpaceOnUse">
<stop offset="0.288462" stop-color="#FF0D00"/>
<stop offset="1" stop-color="#FF5900"/>
</linearGradient>
<linearGradient id="paint1_linear_2481_5019" x1="54.5" y1="40.125" x2="54.5" y2="85.4062" gradientUnits="userSpaceOnUse">
<stop stop-color="#F53033"/>
<stop offset="1" stop-color="#BD0003"/>
</linearGradient>
<linearGradient id="paint2_linear_2481_5019" x1="44.9406" y1="23.7285" x2="44.9406" y2="57.835" gradientUnits="userSpaceOnUse">
<stop stop-color="#F53033"/>
<stop offset="1" stop-color="#BD0003"/>
</linearGradient>
<linearGradient id="paint3_linear_2481_5019" x1="77.4672" y1="55.0749" x2="77.4672" y2="71.1748" gradientUnits="userSpaceOnUse">
<stop stop-color="#F53033"/>
<stop offset="1" stop-color="#BD0003"/>
</linearGradient>
<linearGradient id="paint4_linear_2481_5019" x1="50.1875" y1="52.3438" x2="50.1875" y2="56.6562" gradientUnits="userSpaceOnUse">
<stop stop-color="#F53033"/>
<stop offset="1" stop-color="#BD0003"/>
</linearGradient>
<linearGradient id="paint5_linear_2481_5019" x1="52" y1="29.8053" x2="52" y2="87.8053" gradientUnits="userSpaceOnUse">
<stop stop-color="#F53033"/>
<stop offset="1" stop-color="#E10004"/>
</linearGradient>
<linearGradient id="paint6_linear_2481_5019" x1="52" y1="29.8053" x2="52" y2="87.8053" gradientUnits="userSpaceOnUse">
<stop stop-color="#F53033"/>
<stop offset="1" stop-color="#BD0003"/>
</linearGradient>
</defs>
</svg>
