<svg width="109" height="109" viewBox="0 0 109 109" fill="none" xmlns="http://www.w3.org/2000/svg">
<rect width="109" height="109" rx="54.5" fill="url(#paint0_linear_2484_1787)" fill-opacity="0.1"/>
<path d="M71.0026 85.4062H41.965C41.0738 85.4062 40.2688 84.86 39.9526 83.9975C39.6363 83.135 39.8663 82.215 40.5563 81.6112C42.5688 79.8287 43.7475 77.27 43.7475 74.5962C43.7475 69.45 39.55 65.2525 34.4038 65.2525C32.2763 65.2525 30.2638 65.9713 28.5675 67.3226C27.9063 67.8401 27.0438 67.9262 26.2963 67.5812C25.5488 67.2362 25.0888 66.46 25.0888 65.6262V53.0625C25.0888 45.9037 30.8963 40.0962 38.055 40.0962H71.06C78.2188 40.0962 84.0263 45.9037 84.0263 53.0625V57.2025C84.0263 58.3813 83.0488 59.3588 81.8701 59.3588H76.0625C75.0563 59.3588 74.1363 59.7325 73.4751 60.4225L73.4463 60.4513C72.6413 61.2275 72.2676 62.2913 72.3538 63.3838C72.5263 65.2813 74.3375 66.8051 76.4075 66.8051H81.8701C83.0488 66.8051 84.0263 67.7826 84.0263 68.9613V72.3824C83.9688 79.5987 78.1613 85.4062 71.0026 85.4062ZM46.3925 81.0938H71.0026C75.7751 81.0938 79.6563 77.2125 79.6563 72.44V71.175H76.3501C72.0088 71.175 68.3288 67.955 67.9838 63.815C67.7538 61.4575 68.6163 59.1288 70.3413 57.4326C71.8363 55.9088 73.8488 55.075 76.005 55.075H79.6563V53.0913C79.6563 48.3188 75.7751 44.4375 71.0026 44.4375H37.9975C33.225 44.4375 29.3438 48.3188 29.3438 53.0913V61.9463C30.9538 61.3138 32.65 60.9688 34.375 60.9688C41.9075 60.9688 48.0313 67.0925 48.0313 74.625C48.0313 76.8963 47.4563 79.1387 46.3925 81.0938Z" fill="url(#paint1_linear_2484_1787)"/>
<path d="M27.1875 55.2478C26.0088 55.2478 25.0312 54.2703 25.0312 53.0915V42.5403C25.0312 38.2566 27.705 34.3464 31.7013 32.8514L54.5287 24.2264C56.8862 23.3639 59.5313 23.6803 61.5725 25.1178C63.6138 26.5553 64.85 28.884 64.85 31.3565V42.2815C64.85 43.4602 63.8725 44.4377 62.6938 44.4377C61.515 44.4377 60.5375 43.4602 60.5375 42.2815V31.3565C60.5375 30.264 60.02 29.2865 59.1288 28.654C58.2088 28.0215 57.0875 27.8777 56.0525 28.2515L33.225 36.8765C30.8675 37.7677 29.3438 39.9816 29.3438 42.5403V53.0915C29.3438 54.2703 28.3663 55.2478 27.1875 55.2478Z" fill="url(#paint2_linear_2484_1787)"/>
<path d="M76.3499 71.1748C72.0087 71.1748 68.3287 67.9548 67.9837 63.8148C67.7537 61.4285 68.6161 59.0999 70.3411 57.4036C71.8074 55.9086 73.8199 55.0749 75.9762 55.0749H81.9562C84.8024 55.1611 86.9874 57.4035 86.9874 60.1635V66.0862C86.9874 68.8462 84.8024 71.0885 82.0424 71.1748H76.3499ZM81.8987 59.3874H76.0049C74.9987 59.3874 74.0787 59.7611 73.4174 60.4511C72.5837 61.2561 72.1812 62.3485 72.2962 63.441C72.4687 65.3385 74.2799 66.8623 76.3499 66.8623H81.9849C82.3587 66.8623 82.7037 66.5174 82.7037 66.0862V60.1635C82.7037 59.7322 82.3587 59.4161 81.8987 59.3874Z" fill="url(#paint3_linear_2484_1787)"/>
<path d="M60.25 56.6562H40.125C38.9463 56.6562 37.9688 55.6788 37.9688 54.5C37.9688 53.3213 38.9463 52.3438 40.125 52.3438H60.25C61.4287 52.3438 62.4062 53.3213 62.4062 54.5C62.4062 55.6788 61.4287 56.6562 60.25 56.6562Z" fill="url(#paint4_linear_2484_1787)"/>
<path d="M34.375 88.2812C26.8425 88.2812 20.7188 82.1575 20.7188 74.625C20.7188 70.4275 22.5875 66.5462 25.8362 63.9587C28.2512 62.0324 31.2987 60.9688 34.375 60.9688C41.9075 60.9688 48.0312 67.0925 48.0312 74.625C48.0312 78.535 46.335 82.2725 43.4025 84.86C40.8725 87.0737 37.6812 88.2812 34.375 88.2812ZM34.375 65.2812C32.2475 65.2812 30.235 65.9999 28.5388 67.3512C26.325 69.1049 25.0312 71.7788 25.0312 74.625C25.0312 79.7712 29.2288 83.9688 34.375 83.9688C36.6175 83.9688 38.8025 83.135 40.5562 81.64C42.5687 79.8575 43.7188 77.3275 43.7188 74.625C43.7188 69.4788 39.5212 65.2812 34.375 65.2812Z" fill="url(#paint5_linear_2484_1787)"/>
<path d="M31.4997 79.6562C30.7809 79.6562 30.0622 79.2825 29.6597 78.6213C29.0559 77.5863 29.3721 76.2637 30.4071 75.66L32.9659 74.1363V71.0312C32.9659 69.8525 33.9434 68.875 35.1221 68.875C36.3009 68.875 37.2784 69.8525 37.2784 71.0312V75.3438C37.2784 76.0912 36.8759 76.81 36.2434 77.1838L32.6496 79.34C32.2759 79.57 31.8734 79.6562 31.4997 79.6562Z" fill="url(#paint6_linear_2484_1787)"/>
<defs>
<linearGradient id="paint0_linear_2484_1787" x1="54.5" y1="0" x2="54.5" y2="109" gradientUnits="userSpaceOnUse">
<stop offset="0.288462" stop-color="#FFE46A"/>
<stop offset="1" stop-color="#F8CF00"/>
</linearGradient>
<linearGradient id="paint1_linear_2484_1787" x1="54.5576" y1="40.0962" x2="54.5576" y2="85.4062" gradientUnits="userSpaceOnUse">
<stop stop-color="#F8CF00"/>
<stop offset="1" stop-color="#FFE46A"/>
</linearGradient>
<linearGradient id="paint2_linear_2484_1787" x1="44.9406" y1="23.7503" x2="44.9406" y2="55.2478" gradientUnits="userSpaceOnUse">
<stop stop-color="#F8CF00"/>
<stop offset="1" stop-color="#FFE46A"/>
</linearGradient>
<linearGradient id="paint3_linear_2484_1787" x1="77.4673" y1="55.0749" x2="77.4673" y2="71.1748" gradientUnits="userSpaceOnUse">
<stop stop-color="#F8CF00"/>
<stop offset="1" stop-color="#FFE46A"/>
</linearGradient>
<linearGradient id="paint4_linear_2484_1787" x1="50.1875" y1="52.3438" x2="50.1875" y2="56.6562" gradientUnits="userSpaceOnUse">
<stop stop-color="#F8CF00"/>
<stop offset="1" stop-color="#FFE46A"/>
</linearGradient>
<linearGradient id="paint5_linear_2484_1787" x1="34.375" y1="60.9688" x2="34.375" y2="88.2812" gradientUnits="userSpaceOnUse">
<stop stop-color="#F8CF00"/>
<stop offset="1" stop-color="#FFE46A"/>
</linearGradient>
<linearGradient id="paint6_linear_2484_1787" x1="33.3167" y1="68.875" x2="33.3167" y2="79.6562" gradientUnits="userSpaceOnUse">
<stop stop-color="#F8CF00"/>
<stop offset="1" stop-color="#FFE46A"/>
</linearGradient>
</defs>
</svg>
