<svg width="109" height="109" viewBox="0 0 109 109" fill="none" xmlns="http://www.w3.org/2000/svg">
<rect width="109" height="109" rx="54.5" fill="url(#paint0_linear_2484_1798)" fill-opacity="0.1"/>
<path d="M71.0032 85.4062H55.2481C54.0694 85.4062 53.0919 84.4287 53.0919 83.25C53.0919 82.0713 54.0694 81.0938 55.2481 81.0938H71.0032C75.7757 81.0938 79.6569 77.2125 79.6569 72.44V71.175H76.3507C72.0094 71.175 68.3294 67.955 67.9844 63.815C67.7544 61.4287 68.6169 59.1 70.3419 57.4038C71.8081 55.9088 73.8207 55.075 75.9769 55.075H79.6282V53.0913C79.6282 48.3188 75.7469 44.4375 70.9744 44.4375H37.9694C33.1969 44.4375 29.3157 48.3188 29.3157 53.0913V58.065C29.3157 59.2437 28.3382 60.2212 27.1594 60.2212C25.9807 60.2212 25.0032 59.2437 25.0032 58.065V53.0913C25.0032 45.9325 30.8107 40.125 37.9694 40.125H70.9744C78.1331 40.125 83.9407 45.9325 83.9407 53.0913V57.2313C83.9407 58.41 82.9632 59.3875 81.7844 59.3875H75.9769C74.9707 59.3875 74.0507 59.7613 73.3894 60.4513C72.5557 61.2563 72.1531 62.3487 72.2681 63.4412C72.4406 65.3387 74.2519 66.8625 76.3219 66.8625H81.7844C82.9632 66.8625 83.9407 67.84 83.9407 69.0187V72.44C83.9694 79.5987 78.1619 85.4062 71.0032 85.4062Z" fill="url(#paint1_linear_2484_1798)"/>
<path d="M27.1875 57.835C26.0088 57.835 25.0312 56.8575 25.0312 55.6788V42.5402C25.0312 38.2564 27.7338 34.375 31.73 32.8513L54.5575 24.2263C56.915 23.335 59.5313 23.6514 61.5725 25.0889C63.6425 26.5264 64.85 28.8551 64.85 31.3564V42.2813C64.85 43.4601 63.8725 44.4376 62.6938 44.4376C61.515 44.4376 60.5375 43.4601 60.5375 42.2813V31.3564C60.5375 30.2639 60.02 29.2576 59.1 28.6251C58.18 27.9926 57.0875 27.8488 56.0525 28.2513L33.225 36.8763C30.8963 37.7676 29.315 40.0389 29.315 42.5402V55.6788C29.3438 56.8863 28.3663 57.835 27.1875 57.835Z" fill="url(#paint2_linear_2484_1798)"/>
<path d="M76.3499 71.1748C72.0087 71.1748 68.3287 67.9548 67.9837 63.8148C67.7537 61.4285 68.6161 59.0999 70.3411 57.4036C71.8074 55.9086 73.8199 55.0749 75.9762 55.0749H81.9562C84.8024 55.1611 86.9874 57.4035 86.9874 60.1635V66.0862C86.9874 68.8462 84.8024 71.0885 82.0424 71.1748H76.3499ZM81.8987 59.3874H76.0049C74.9987 59.3874 74.0787 59.7611 73.4174 60.4511C72.5837 61.2561 72.1812 62.3485 72.2962 63.441C72.4687 65.3385 74.2799 66.8623 76.3499 66.8623H81.9849C82.3587 66.8623 82.7037 66.5174 82.7037 66.0862V60.1635C82.7037 59.7322 82.3587 59.4161 81.8987 59.3874Z" fill="url(#paint3_linear_2484_1798)"/>
<path d="M60.25 56.6562H40.125C38.9463 56.6562 37.9688 55.6788 37.9688 54.5C37.9688 53.3213 38.9463 52.3438 40.125 52.3438H60.25C61.4287 52.3438 62.4062 53.3213 62.4062 54.5C62.4062 55.6788 61.4287 56.6562 60.25 56.6562Z" fill="url(#paint4_linear_2484_1798)"/>
<path d="M47.3125 76.6088C46.1338 76.6088 45.1562 75.6313 45.1562 74.4525V70.7724C45.1562 70.1399 44.6387 69.5938 43.9775 69.5938H28.625C27.4463 69.5938 26.4688 68.6163 26.4688 67.4375C26.4688 66.2588 27.4463 65.2812 28.625 65.2812H43.9775C46.9962 65.2812 49.4688 67.7537 49.4688 70.7724V74.4525C49.4688 75.6313 48.4912 76.6088 47.3125 76.6088Z" fill="url(#paint5_linear_2484_1798)"/>
<path d="M32.1323 73.1011C31.5861 73.1011 31.0398 72.8999 30.6086 72.4687L27.1011 68.9612C26.2673 68.1275 26.2673 66.7473 27.1011 65.9136L30.6086 62.4062C31.4423 61.5724 32.8223 61.5724 33.6561 62.4062C34.4898 63.2399 34.4898 64.6199 33.6561 65.4537L31.6723 67.4374L33.6561 69.4212C34.4898 70.2549 34.4898 71.6349 33.6561 72.4687C33.2248 72.8999 32.6786 73.1011 32.1323 73.1011Z" fill="url(#paint6_linear_2484_1798)"/>
<path d="M47.3125 84.774H31.96C28.9413 84.774 26.4688 82.3014 26.4688 79.2827V75.6028C26.4688 74.424 27.4463 73.4465 28.625 73.4465C29.8038 73.4465 30.7812 74.424 30.7812 75.6028V79.2827C30.7812 79.9152 31.2988 80.4615 31.96 80.4615H47.3125C48.4912 80.4615 49.4688 81.439 49.4688 82.6178C49.4688 83.7965 48.4912 84.774 47.3125 84.774Z" fill="url(#paint7_linear_2484_1798)"/>
<path d="M43.8056 88.2812C43.2594 88.2812 42.7131 88.08 42.2819 87.6488C41.4481 86.815 41.4481 85.4348 42.2819 84.6011L44.2656 82.6175L42.2819 80.6337C41.4481 79.8 41.4481 78.42 42.2819 77.5863C43.1156 76.7525 44.4956 76.7525 45.3294 77.5863L48.8369 81.0937C49.6706 81.9274 49.6706 83.3074 48.8369 84.1412L45.3294 87.6488C44.9269 88.08 44.3519 88.2812 43.8056 88.2812Z" fill="url(#paint8_linear_2484_1798)"/>
<defs>
<linearGradient id="paint0_linear_2484_1798" x1="54.5" y1="0" x2="54.5" y2="109" gradientUnits="userSpaceOnUse">
<stop offset="0.288462" stop-color="#22E0DB"/>
<stop offset="1" stop-color="#0BDFBA"/>
</linearGradient>
<linearGradient id="paint1_linear_2484_1798" x1="54.472" y1="40.125" x2="54.472" y2="85.4062" gradientUnits="userSpaceOnUse">
<stop stop-color="#30C7EF"/>
<stop offset="1" stop-color="#9BEAFF"/>
</linearGradient>
<linearGradient id="paint2_linear_2484_1798" x1="44.9406" y1="23.7285" x2="44.9406" y2="57.835" gradientUnits="userSpaceOnUse">
<stop stop-color="#30C7EF"/>
<stop offset="1" stop-color="#9BEAFF"/>
</linearGradient>
<linearGradient id="paint3_linear_2484_1798" x1="77.4673" y1="55.0749" x2="77.4673" y2="71.1748" gradientUnits="userSpaceOnUse">
<stop stop-color="#30C7EF"/>
<stop offset="1" stop-color="#9BEAFF"/>
</linearGradient>
<linearGradient id="paint4_linear_2484_1798" x1="50.1875" y1="52.3438" x2="50.1875" y2="56.6562" gradientUnits="userSpaceOnUse">
<stop stop-color="#30C7EF"/>
<stop offset="1" stop-color="#9BEAFF"/>
</linearGradient>
<linearGradient id="paint5_linear_2484_1798" x1="37.9688" y1="65.2812" x2="37.9688" y2="76.6088" gradientUnits="userSpaceOnUse">
<stop stop-color="#30C7EF"/>
<stop offset="1" stop-color="#9BEAFF"/>
</linearGradient>
<linearGradient id="paint6_linear_2484_1798" x1="30.3786" y1="61.7809" x2="30.3786" y2="73.1011" gradientUnits="userSpaceOnUse">
<stop stop-color="#30C7EF"/>
<stop offset="1" stop-color="#9BEAFF"/>
</linearGradient>
<linearGradient id="paint7_linear_2484_1798" x1="37.9688" y1="73.4465" x2="37.9688" y2="84.774" gradientUnits="userSpaceOnUse">
<stop stop-color="#30C7EF"/>
<stop offset="1" stop-color="#9BEAFF"/>
</linearGradient>
<linearGradient id="paint8_linear_2484_1798" x1="45.5594" y1="76.9609" x2="45.5594" y2="88.2812" gradientUnits="userSpaceOnUse">
<stop stop-color="#30C7EF"/>
<stop offset="1" stop-color="#9BEAFF"/>
</linearGradient>
</defs>
</svg>
