<svg width="109" height="109" viewBox="0 0 109 109" fill="none" xmlns="http://www.w3.org/2000/svg">
<rect width="109" height="109" rx="54.5" fill="url(#paint0_linear_2484_1775)" fill-opacity="0.1"/>
<path d="M71.0025 85.4062H41.9363C41.0163 85.4062 40.2112 84.8313 39.895 83.9975C39.5787 83.135 39.8375 82.1862 40.5275 81.6112C41.2175 81.0362 41.85 80.2888 42.31 79.4838C43.23 78.0175 43.69 76.35 43.69 74.6538C43.69 69.5075 39.4925 65.31 34.3463 65.31C32.2188 65.31 30.2063 66.0287 28.51 67.3799C27.8775 67.8974 26.9862 67.9838 26.2387 67.6388C25.4912 67.2938 25.0312 66.5175 25.0312 65.6838V53.1201C25.0312 45.9613 30.8387 40.1538 37.9975 40.1538H71.0025C78.1613 40.1538 83.9688 45.9613 83.9688 53.1201V57.2601C83.9688 58.4388 82.9912 59.4163 81.8125 59.4163H76.005C74.9987 59.4163 74.0788 59.79 73.4175 60.48L73.3888 60.5088C72.5838 61.2851 72.21 62.3487 72.2963 63.4412C72.4688 65.3387 74.28 66.8625 76.35 66.8625H81.8125C82.9912 66.8625 83.9688 67.84 83.9688 69.0187V72.44C83.9688 79.5987 78.1613 85.4062 71.0025 85.4062ZM46.3925 81.0938H71.0025C75.775 81.0938 79.6562 77.2125 79.6562 72.44V71.175H76.35C72.0088 71.175 68.3288 67.955 67.9838 63.815C67.7538 61.4575 68.6162 59.1288 70.3412 57.4326C71.8362 55.9088 73.8487 55.075 76.005 55.075H79.6562V53.0913C79.6562 48.3188 75.775 44.4375 71.0025 44.4375H37.9975C33.225 44.4375 29.3438 48.3188 29.3438 53.0913V61.9463C30.9538 61.3138 32.65 60.9688 34.375 60.9688C41.9075 60.9688 48.0312 67.0925 48.0312 74.625C48.0312 76.8963 47.4562 79.1387 46.3925 81.0938Z" fill="url(#paint1_linear_2484_1775)"/>
<path d="M27.1875 57.835C26.0088 57.835 25.0312 56.8575 25.0312 55.6788V42.5402C25.0312 38.2564 27.7338 34.375 31.73 32.8513L54.5575 24.2263C56.915 23.335 59.5313 23.6514 61.5725 25.0889C63.6425 26.5264 64.85 28.8551 64.85 31.3564V42.2813C64.85 43.4601 63.8725 44.4376 62.6938 44.4376C61.515 44.4376 60.5375 43.4601 60.5375 42.2813V31.3564C60.5375 30.2639 60.02 29.2576 59.1 28.6251C58.18 27.9926 57.0875 27.8488 56.0525 28.2513L33.225 36.8763C30.8963 37.7676 29.315 40.0389 29.315 42.5402V55.6788C29.3438 56.8863 28.3663 57.835 27.1875 57.835Z" fill="url(#paint2_linear_2484_1775)"/>
<path d="M76.3499 71.1748C72.0087 71.1748 68.3287 67.9548 67.9837 63.8148C67.7537 61.4285 68.6161 59.0999 70.3411 57.4036C71.8074 55.9086 73.8199 55.0749 75.9762 55.0749H81.9562C84.8024 55.1611 86.9874 57.4035 86.9874 60.1635V66.0862C86.9874 68.8462 84.8024 71.0885 82.0424 71.1748H76.3499ZM81.8987 59.3874H76.0049C74.9987 59.3874 74.0787 59.7611 73.4174 60.4511C72.5837 61.2561 72.1812 62.3485 72.2962 63.441C72.4687 65.3385 74.2799 66.8623 76.3499 66.8623H81.9849C82.3587 66.8623 82.7037 66.5174 82.7037 66.0862V60.1635C82.7037 59.7322 82.3587 59.4161 81.8987 59.3874Z" fill="url(#paint3_linear_2484_1775)"/>
<path d="M60.25 56.6562H40.125C38.9463 56.6562 37.9688 55.6788 37.9688 54.5C37.9688 53.3213 38.9463 52.3438 40.125 52.3438H60.25C61.4287 52.3438 62.4062 53.3213 62.4062 54.5C62.4062 55.6788 61.4287 56.6562 60.25 56.6562Z" fill="url(#paint4_linear_2484_1775)"/>
<path d="M34.375 88.2812C29.6025 88.2812 25.1175 85.7513 22.7025 81.64C21.4088 79.57 20.7188 77.1262 20.7188 74.625C20.7188 70.4275 22.5875 66.5462 25.8362 63.9587C28.2512 62.0324 31.2987 60.9688 34.375 60.9688C41.9075 60.9688 48.0312 67.0925 48.0312 74.625C48.0312 77.1262 47.3412 79.57 46.0475 81.6688C45.3575 82.8763 44.4088 83.9688 43.3163 84.8888C40.93 87.0738 37.7388 88.2812 34.375 88.2812ZM34.375 65.2812C32.2475 65.2812 30.235 65.9999 28.5388 67.3512C26.325 69.1049 25.0312 71.7788 25.0312 74.625C25.0312 76.3212 25.4913 77.9887 26.3825 79.4262C28.0788 82.3012 31.0688 83.9688 34.375 83.9688C36.6462 83.9688 38.8313 83.135 40.4988 81.64C41.2463 81.0075 41.8788 80.26 42.3388 79.455C43.2588 77.9887 43.7188 76.3212 43.7188 74.625C43.7188 69.4788 39.5212 65.2812 34.375 65.2812Z" fill="url(#paint5_linear_2484_1775)"/>
<path d="M32.7359 79.6277C32.1896 79.6277 31.6434 79.4265 31.2121 78.9952L28.3659 76.149C27.5322 75.3153 27.5322 73.9351 28.3659 73.1014C29.1997 72.2676 30.5797 72.2676 31.4134 73.1014L32.7934 74.4815L37.3934 70.2264C38.2559 69.4214 39.6359 69.479 40.4409 70.3415C41.2459 71.204 41.1884 72.584 40.3259 73.389L34.2022 79.0526C33.7709 79.4264 33.2534 79.6277 32.7359 79.6277Z" fill="url(#paint6_linear_2484_1775)"/>
<defs>
<linearGradient id="paint0_linear_2484_1775" x1="54.5" y1="0" x2="54.5" y2="109" gradientUnits="userSpaceOnUse">
<stop offset="0.288462" stop-color="#00CB76"/>
<stop offset="1" stop-color="#9BFFC3"/>
</linearGradient>
<linearGradient id="paint1_linear_2484_1775" x1="54.5" y1="40.1538" x2="54.5" y2="85.4062" gradientUnits="userSpaceOnUse">
<stop stop-color="#00CB76"/>
<stop offset="1" stop-color="#00EB89"/>
</linearGradient>
<linearGradient id="paint2_linear_2484_1775" x1="44.9406" y1="23.7285" x2="44.9406" y2="57.835" gradientUnits="userSpaceOnUse">
<stop stop-color="#00CB76"/>
<stop offset="1" stop-color="#00EB89"/>
</linearGradient>
<linearGradient id="paint3_linear_2484_1775" x1="77.4673" y1="55.0749" x2="77.4673" y2="71.1748" gradientUnits="userSpaceOnUse">
<stop stop-color="#00CB76"/>
<stop offset="1" stop-color="#00EB89"/>
</linearGradient>
<linearGradient id="paint4_linear_2484_1775" x1="50.1875" y1="52.3438" x2="50.1875" y2="56.6562" gradientUnits="userSpaceOnUse">
<stop stop-color="#00CB76"/>
<stop offset="1" stop-color="#00EB89"/>
</linearGradient>
<linearGradient id="paint5_linear_2484_1775" x1="34.375" y1="60.9688" x2="34.375" y2="88.2812" gradientUnits="userSpaceOnUse">
<stop stop-color="#00CB76"/>
<stop offset="1" stop-color="#00EB89"/>
</linearGradient>
<linearGradient id="paint6_linear_2484_1775" x1="34.3755" y1="69.6569" x2="34.3755" y2="79.6277" gradientUnits="userSpaceOnUse">
<stop stop-color="#00CB76"/>
<stop offset="1" stop-color="#00EB89"/>
</linearGradient>
</defs>
</svg>
